<svg width="22" height="22" viewBox="0 0 22 22" fill="none" xmlns="http://www.w3.org/2000/svg">
<path d="M11 0C8.82441 0 6.69767 0.645139 4.88873 1.85383C3.07979 3.06253 1.66989 4.7805 0.83733 6.79048C0.00476615 8.80047 -0.213071 11.0122 0.211367 13.146C0.635804 15.2798 1.68345 17.2398 3.22183 18.7782C4.76021 20.3166 6.72022 21.3642 8.85401 21.7886C10.9878 22.2131 13.1995 21.9952 15.2095 21.1627C17.2195 20.3301 18.9375 18.9202 20.1462 17.1113C21.3549 15.3023 22 13.1756 22 11C21.9969 8.08359 20.8369 5.28753 18.7747 3.22531C16.7125 1.16309 13.9164 0.00315432 11 0V0ZM18.9264 6.41667H15.9738C15.3129 4.8849 14.4426 3.45225 13.3879 2.15967C15.7222 2.79485 17.7121 4.32435 18.9264 6.41667V6.41667ZM15.125 11C15.1175 11.9333 14.9704 12.8602 14.6887 13.75H7.31134C7.0296 12.8602 6.88253 11.9333 6.875 11C6.88253 10.0667 7.0296 9.13979 7.31134 8.25H14.6887C14.9704 9.13979 15.1175 10.0667 15.125 11V11ZM8.04651 15.5833H13.9535C13.1755 17.1194 12.1808 18.5358 11 19.789C9.81876 18.5361 8.82406 17.1197 8.04651 15.5833V15.5833ZM8.04651 6.41667C8.82454 4.88058 9.8192 3.46423 11 2.211C12.1812 3.46387 13.176 4.88029 13.9535 6.41667H8.04651ZM8.61667 2.15967C7.56036 3.45197 6.68854 4.88464 6.02617 6.41667H3.07359C4.28896 4.3234 6.28069 2.79377 8.61667 2.15967V2.15967ZM2.25592 8.25H5.40834C5.1707 9.14755 5.0475 10.0715 5.04167 11C5.0475 11.9285 5.1707 12.8525 5.40834 13.75H2.25592C1.69248 11.96 1.69248 10.04 2.25592 8.25V8.25ZM3.07359 15.5833H6.02617C6.68854 17.1154 7.56036 18.548 8.61667 19.8403C6.28069 19.2062 4.28896 17.6766 3.07359 15.5833V15.5833ZM13.3879 19.8403C14.4426 18.5478 15.3129 17.1151 15.9738 15.5833H18.9264C17.7121 17.6757 15.7222 19.2052 13.3879 19.8403V19.8403ZM19.7441 13.75H16.5917C16.8293 12.8525 16.9525 11.9285 16.9583 11C16.9525 10.0715 16.8293 9.14755 16.5917 8.25H19.7423C20.3057 10.04 20.3057 11.96 19.7423 13.75H19.7441Z" fill="#B5B5B5"/>
</svg>
